<svg width="31" height="28" viewBox="0 0 31 28" fill="none" xmlns="http://www.w3.org/2000/svg">
<g clip-path="url(#clip0_8_45)">
<path opacity="0.2" d="M29.7902 22.4609C29.7902 23.1532 29.5856 23.8299 29.2024 24.4054C28.8192 24.981 28.2746 25.4296 27.6373 25.6945C27 25.9594 26.2988 26.0287 25.6223 25.8937C24.9458 25.7586 24.3244 25.4253 23.8367 24.9358C23.3489 24.4463 23.0168 23.8227 22.8822 23.1438C22.7476 22.4648 22.8167 21.7611 23.0807 21.1215C23.3446 20.482 23.7916 19.9354 24.3651 19.5508C24.9387 19.1662 25.6129 18.9609 26.3027 18.9609C27.2276 18.9609 28.1147 19.3297 28.7687 19.9861C29.4228 20.6424 29.7902 21.5327 29.7902 22.4609Z" fill="#B0F90A"/>
<path d="M26.3027 17.7944C25.2718 17.7954 24.2703 18.1395 23.4552 18.7729C22.64 19.4062 22.0572 20.2931 21.798 21.2944H7.70269C6.46944 21.2944 5.28669 20.8028 4.41464 19.9276C3.5426 19.0524 3.05269 17.8654 3.05269 16.6278C3.05269 15.3901 3.5426 14.2031 4.41464 13.3279C5.28669 12.4528 6.46944 11.9611 7.70269 11.9611H21.6527C23.1943 11.9611 24.6727 11.3465 25.7628 10.2526C26.8528 9.1586 27.4652 7.67486 27.4652 6.12777C27.4652 4.58067 26.8528 3.09694 25.7628 2.00298C24.6727 0.909015 23.1943 0.294434 21.6527 0.294434H7.70269C7.39438 0.294434 7.09869 0.41735 6.88068 0.636143C6.66267 0.854935 6.54019 1.15168 6.54019 1.4611C6.54019 1.77052 6.66267 2.06727 6.88068 2.28606C7.09869 2.50485 7.39438 2.62777 7.70269 2.62777H21.6527C22.5776 2.62777 23.4647 2.99652 24.1187 3.65289C24.7728 4.30927 25.1402 5.19951 25.1402 6.12777C25.1402 7.05603 24.7728 7.94626 24.1187 8.60264C23.4647 9.25902 22.5776 9.62777 21.6527 9.62777H7.70269C5.85281 9.62777 4.07869 10.3653 2.77062 11.678C1.46256 12.9908 0.727692 14.7713 0.727692 16.6278C0.727692 18.4843 1.46256 20.2648 2.77062 21.5775C4.07869 22.8903 5.85281 23.6278 7.70269 23.6278H21.798C22.0154 24.4728 22.4646 25.2397 23.0945 25.8414C23.7243 26.4431 24.5097 26.8554 25.3614 27.0316C26.2131 27.2079 27.097 27.1409 27.9127 26.8383C28.7283 26.5357 29.4431 26.0096 29.9758 25.3198C30.5085 24.63 30.8378 23.8041 30.9262 22.9359C31.0147 22.0677 30.8588 21.192 30.4763 20.4082C30.0937 19.6245 29.4998 18.9641 28.7621 18.5021C28.0244 18.04 27.1723 17.7949 26.3027 17.7944ZM26.3027 24.7944C25.8428 24.7944 25.3933 24.6576 25.011 24.4012C24.6286 24.1448 24.3306 23.7804 24.1547 23.354C23.9787 22.9277 23.9327 22.4585 24.0224 22.0059C24.1121 21.5533 24.3335 21.1375 24.6587 20.8112C24.9838 20.4849 25.3981 20.2626 25.8491 20.1726C26.3001 20.0826 26.7676 20.1288 27.1924 20.3054C27.6173 20.482 27.9804 20.7811 28.2359 21.1648C28.4913 21.5485 28.6277 21.9996 28.6277 22.4611C28.6277 23.0799 28.3827 23.6734 27.9467 24.111C27.5107 24.5486 26.9193 24.7944 26.3027 24.7944Z" fill="#B0F90A"/>
</g>
<defs>
<clipPath id="clip0_8_45">
<rect width="31" height="28" fill="white"/>
</clipPath>
</defs>
</svg>
