<svg width="28" height="28" viewBox="0 0 28 28" fill="none" xmlns="http://www.w3.org/2000/svg">
<path opacity="0.2" d="M22.5909 1.59082V26.409H16.8636V20.6817H11.1364V26.409H5.40909V1.59082H22.5909Z" fill="#B0F90A"/>
<path d="M26.4091 25.4547H23.5454V2.54557H24.5C24.7531 2.54557 24.9959 2.445 25.175 2.26599C25.354 2.08697 25.4545 1.84418 25.4545 1.59102C25.4545 1.33786 25.354 1.09507 25.175 0.916054C24.9959 0.737042 24.7531 0.636475 24.5 0.636475H3.49999C3.24683 0.636475 3.00404 0.737042 2.82502 0.916054C2.64601 1.09507 2.54544 1.33786 2.54544 1.59102C2.54544 1.84418 2.64601 2.08697 2.82502 2.26599C3.00404 2.445 3.24683 2.54557 3.49999 2.54557H4.45453V25.4547H1.5909C1.33774 25.4547 1.09494 25.5552 0.915932 25.7342C0.73692 25.9132 0.636353 26.156 0.636353 26.4092C0.636353 26.6624 0.73692 26.9052 0.915932 27.0842C1.09494 27.2632 1.33774 27.3637 1.5909 27.3637H26.4091C26.6622 27.3637 26.905 27.2632 27.084 27.0842C27.2631 26.9052 27.3636 26.6624 27.3636 26.4092C27.3636 26.156 27.2631 25.9132 27.084 25.7342C26.905 25.5552 26.6622 25.4547 26.4091 25.4547ZM6.36363 2.54557H21.6364V25.4547H17.8182V20.6819C17.8182 20.4288 17.7176 20.186 17.5386 20.007C17.3596 19.828 17.1168 19.7274 16.8636 19.7274H11.1364C10.8832 19.7274 10.6404 19.828 10.4614 20.007C10.2824 20.186 10.1818 20.4288 10.1818 20.6819V25.4547H6.36363V2.54557ZM15.9091 25.4547H12.0909V21.6365H15.9091V25.4547ZM9.22726 6.36375C9.22726 6.11059 9.32783 5.86779 9.50684 5.68878C9.68585 5.50977 9.92865 5.4092 10.1818 5.4092H12.0909C12.3441 5.4092 12.5869 5.50977 12.7659 5.68878C12.9449 5.86779 13.0454 6.11059 13.0454 6.36375C13.0454 6.61691 12.9449 6.8597 12.7659 7.03871C12.5869 7.21772 12.3441 7.31829 12.0909 7.31829H10.1818C9.92865 7.31829 9.68585 7.21772 9.50684 7.03871C9.32783 6.8597 9.22726 6.61691 9.22726 6.36375ZM14.9545 6.36375C14.9545 6.11059 15.0551 5.86779 15.2341 5.68878C15.4131 5.50977 15.6559 5.4092 15.9091 5.4092H17.8182C18.0713 5.4092 18.3141 5.50977 18.4931 5.68878C18.6721 5.86779 18.7727 6.11059 18.7727 6.36375C18.7727 6.61691 18.6721 6.8597 18.4931 7.03871C18.3141 7.21772 18.0713 7.31829 17.8182 7.31829H15.9091C15.6559 7.31829 15.4131 7.21772 15.2341 7.03871C15.0551 6.8597 14.9545 6.61691 14.9545 6.36375ZM9.22726 11.1365C9.22726 10.8833 9.32783 10.6405 9.50684 10.4615C9.68585 10.2825 9.92865 10.1819 10.1818 10.1819H12.0909C12.3441 10.1819 12.5869 10.2825 12.7659 10.4615C12.9449 10.6405 13.0454 10.8833 13.0454 11.1365C13.0454 11.3896 12.9449 11.6324 12.7659 11.8114C12.5869 11.9905 12.3441 12.091 12.0909 12.091H10.1818C9.92865 12.091 9.68585 11.9905 9.50684 11.8114C9.32783 11.6324 9.22726 11.3896 9.22726 11.1365ZM14.9545 11.1365C14.9545 10.8833 15.0551 10.6405 15.2341 10.4615C15.4131 10.2825 15.6559 10.1819 15.9091 10.1819H17.8182C18.0713 10.1819 18.3141 10.2825 18.4931 10.4615C18.6721 10.6405 18.7727 10.8833 18.7727 11.1365C18.7727 11.3896 18.6721 11.6324 18.4931 11.8114C18.3141 11.9905 18.0713 12.091 17.8182 12.091H15.9091C15.6559 12.091 15.4131 11.9905 15.2341 11.8114C15.0551 11.6324 14.9545 11.3896 14.9545 11.1365ZM9.22726 15.9092C9.22726 15.656 9.32783 15.4132 9.50684 15.2342C9.68585 15.0552 9.92865 14.9547 10.1818 14.9547H12.0909C12.3441 14.9547 12.5869 15.0552 12.7659 15.2342C12.9449 15.4132 13.0454 15.656 13.0454 15.9092C13.0454 16.1624 12.9449 16.4052 12.7659 16.5842C12.5869 16.7632 12.3441 16.8637 12.0909 16.8637H10.1818C9.92865 16.8637 9.68585 16.7632 9.50684 16.5842C9.32783 16.4052 9.22726 16.1624 9.22726 15.9092ZM14.9545 15.9092C14.9545 15.656 15.0551 15.4132 15.2341 15.2342C15.4131 15.0552 15.6559 14.9547 15.9091 14.9547H17.8182C18.0713 14.9547 18.3141 15.0552 18.4931 15.2342C18.6721 15.4132 18.7727 15.656 18.7727 15.9092C18.7727 16.1624 18.6721 16.4052 18.4931 16.5842C18.3141 16.7632 18.0713 16.8637 17.8182 16.8637H15.9091C15.6559 16.8637 15.4131 16.7632 15.2341 16.5842C15.0551 16.4052 14.9545 16.1624 14.9545 15.9092Z" fill="#B0F90A"/>
</svg>
