<svg width="21" height="21" viewBox="0 0 21 21" fill="none" xmlns="http://www.w3.org/2000/svg">
<path opacity="0.2" d="M19.6179 10.2244C19.6179 12.0044 19.0901 13.7445 18.1012 15.2245C17.1122 16.7045 15.7066 17.8581 14.0621 18.5393C12.4175 19.2205 10.6079 19.3987 8.86211 19.0514C7.11628 18.7042 5.51264 17.847 4.25396 16.5883C2.99529 15.3297 2.13812 13.726 1.79086 11.9802C1.44359 10.2343 1.62182 8.42475 2.30301 6.78021C2.9842 5.13568 4.13775 3.73007 5.61779 2.74114C7.09783 1.75221 8.83789 1.22437 10.6179 1.22437C13.0049 1.22437 15.2941 2.17258 16.9819 3.8604C18.6697 5.54823 19.6179 7.83742 19.6179 10.2244Z" fill="black"/>
<path d="M14.8986 7.44374C14.9683 7.51339 15.0236 7.59611 15.0613 7.68716C15.0991 7.77821 15.1185 7.8758 15.1185 7.97437C15.1185 8.07293 15.0991 8.17052 15.0613 8.26157C15.0236 8.35262 14.9683 8.43534 14.8986 8.50499L9.64855 13.755C9.57889 13.8247 9.49618 13.88 9.40513 13.9178C9.31408 13.9555 9.21649 13.975 9.11792 13.975C9.01936 13.975 8.92177 13.9555 8.83072 13.9178C8.73967 13.88 8.65695 13.8247 8.5873 13.755L6.3373 11.505C6.19657 11.3643 6.11751 11.1734 6.11751 10.9744C6.11751 10.7753 6.19657 10.5845 6.3373 10.4437C6.47803 10.303 6.6689 10.2239 6.86792 10.2239C7.06695 10.2239 7.25782 10.303 7.39855 10.4437L9.11792 12.1641L13.8373 7.44374C13.907 7.37401 13.9897 7.31869 14.0807 7.28095C14.1718 7.2432 14.2694 7.22377 14.3679 7.22377C14.4665 7.22377 14.5641 7.2432 14.6551 7.28095C14.7462 7.31869 14.8289 7.37401 14.8986 7.44374ZM20.3679 10.2244C20.3679 12.1527 19.7961 14.0378 18.7248 15.6412C17.6534 17.2446 16.1307 18.4942 14.3491 19.2322C12.5675 19.9701 10.6071 20.1632 8.71579 19.787C6.82448 19.4108 5.0872 18.4822 3.72363 17.1187C2.36007 15.7551 1.43147 14.0178 1.05527 12.1265C0.679062 10.2352 0.872144 8.27478 1.6101 6.4932C2.34805 4.71162 3.59774 3.18888 5.20111 2.11754C6.80449 1.04619 8.68956 0.474365 10.6179 0.474365C13.2029 0.477095 15.6813 1.5052 17.5092 3.33309C19.3371 5.16098 20.3652 7.63934 20.3679 10.2244ZM18.8679 10.2244C18.8679 8.59267 18.3841 6.99762 17.4775 5.64091C16.571 4.28421 15.2826 3.22678 13.7751 2.60236C12.2676 1.97794 10.6088 1.81456 9.00843 2.13289C7.40809 2.45121 5.93808 3.23695 4.78429 4.39073C3.63051 5.54452 2.84477 7.01453 2.52645 8.61487C2.20812 10.2152 2.3715 11.874 2.99592 13.3815C3.62034 14.889 4.67776 16.1775 6.03447 17.084C7.39118 17.9905 8.98623 18.4744 10.6179 18.4744C12.8052 18.4719 14.9022 17.6019 16.4488 16.0553C17.9955 14.5086 18.8654 12.4116 18.8679 10.2244Z" fill="black"/>
</svg>
