<svg width="21" height="21" viewBox="0 0 21 21" fill="none" xmlns="http://www.w3.org/2000/svg">
<path opacity="0.2" d="M19.6179 10.2244C19.6179 12.0044 19.0901 13.7445 18.1012 15.2245C17.1122 16.7045 15.7066 17.8581 14.0621 18.5393C12.4175 19.2205 10.6079 19.3987 8.86211 19.0514C7.11628 18.7042 5.51264 17.847 4.25396 16.5883C2.99529 15.3297 2.13812 13.726 1.79086 11.9802C1.44359 10.2343 1.62182 8.42475 2.30301 6.78021C2.9842 5.13568 4.13775 3.73007 5.61779 2.74114C7.09783 1.75221 8.83789 1.22437 10.6179 1.22437C13.0049 1.22437 15.2941 2.17258 16.9819 3.8604C18.6697 5.54823 19.6179 7.83742 19.6179 10.2244Z" fill="#EF0909"/>
<path d="M14.1486 7.75499L11.6782 10.2244L14.1486 12.6937C14.2182 12.7634 14.2735 12.8461 14.3112 12.9372C14.3489 13.0282 14.3683 13.1258 14.3683 13.2244C14.3683 13.3229 14.3489 13.4205 14.3112 13.5115C14.2735 13.6026 14.2182 13.6853 14.1486 13.755C14.0789 13.8247 13.9961 13.8799 13.9051 13.9177C13.8141 13.9554 13.7165 13.9748 13.6179 13.9748C13.5194 13.9748 13.4218 13.9554 13.3308 13.9177C13.2397 13.8799 13.157 13.8247 13.0873 13.755L10.6179 11.2847L8.14855 13.755C8.07887 13.8247 7.99614 13.8799 7.9051 13.9177C7.81405 13.9554 7.71647 13.9748 7.61792 13.9748C7.51938 13.9748 7.4218 13.9554 7.33075 13.9177C7.23971 13.8799 7.15698 13.8247 7.0873 13.755C7.01762 13.6853 6.96234 13.6026 6.92463 13.5115C6.88692 13.4205 6.86751 13.3229 6.86751 13.2244C6.86751 13.1258 6.88692 13.0282 6.92463 12.9372C6.96234 12.8461 7.01762 12.7634 7.0873 12.6937L9.55761 10.2244L7.0873 7.75499C6.94657 7.61426 6.86751 7.42339 6.86751 7.22437C6.86751 7.02534 6.94657 6.83447 7.0873 6.69374C7.22803 6.55301 7.4189 6.47395 7.61792 6.47395C7.81695 6.47395 8.00782 6.55301 8.14855 6.69374L10.6179 9.16405L13.0873 6.69374C13.157 6.62406 13.2397 6.56878 13.3308 6.53107C13.4218 6.49336 13.5194 6.47395 13.6179 6.47395C13.7165 6.47395 13.8141 6.49336 13.9051 6.53107C13.9961 6.56878 14.0789 6.62406 14.1486 6.69374C14.2182 6.76342 14.2735 6.84615 14.3112 6.93719C14.3489 7.02824 14.3683 7.12582 14.3683 7.22437C14.3683 7.32291 14.3489 7.42049 14.3112 7.51154C14.2735 7.60258 14.2182 7.68531 14.1486 7.75499ZM20.3679 10.2244C20.3679 12.1527 19.7961 14.0378 18.7248 15.6412C17.6534 17.2446 16.1307 18.4942 14.3491 19.2322C12.5675 19.9701 10.6071 20.1632 8.71579 19.787C6.82448 19.4108 5.0872 18.4822 3.72363 17.1187C2.36007 15.7551 1.43147 14.0178 1.05527 12.1265C0.679062 10.2352 0.872144 8.27478 1.6101 6.4932C2.34805 4.71162 3.59774 3.18888 5.20111 2.11754C6.80449 1.04619 8.68956 0.474365 10.6179 0.474365C13.2029 0.477095 15.6813 1.5052 17.5092 3.33309C19.3371 5.16098 20.3652 7.63934 20.3679 10.2244ZM18.8679 10.2244C18.8679 8.59267 18.3841 6.99762 17.4775 5.64091C16.571 4.28421 15.2826 3.22678 13.7751 2.60236C12.2676 1.97794 10.6088 1.81456 9.00843 2.13289C7.40809 2.45121 5.93808 3.23695 4.78429 4.39073C3.63051 5.54452 2.84477 7.01453 2.52645 8.61487C2.20812 10.2152 2.3715 11.874 2.99592 13.3815C3.62034 14.889 4.67776 16.1775 6.03447 17.084C7.39118 17.9905 8.98623 18.4744 10.6179 18.4744C12.8052 18.4719 14.9022 17.6019 16.4488 16.0553C17.9955 14.5086 18.8654 12.4116 18.8679 10.2244Z" fill="#EF0909"/>
</svg>
