<svg width="27" height="28" viewBox="0 0 27 28" fill="none" xmlns="http://www.w3.org/2000/svg">
<path opacity="0.2" d="M25.0329 24.2924H2.5329V2.18713C5.48764 2.18713 8.41345 2.7589 11.1433 3.8698C13.8731 4.98069 16.3535 6.60895 18.4428 8.66162C20.5321 10.7143 22.1895 13.1511 23.3202 15.8331C24.4509 18.515 25.0329 21.3895 25.0329 24.2924Z" fill="#B0F90A"/>
<path d="M9.69212 17.2588C10.6353 18.1803 11.383 19.2764 11.8921 20.4837C12.4012 21.6911 12.6615 22.9856 12.6579 24.2924C12.6579 24.5855 12.5394 24.8667 12.3284 25.0739C12.1174 25.2812 11.8313 25.3977 11.5329 25.3977C11.2345 25.3977 10.9484 25.2812 10.7374 25.0739C10.5264 24.8667 10.4079 24.5855 10.4079 24.2924C10.4079 22.2405 9.57821 20.2726 8.10136 18.8216C6.62452 17.3707 4.62148 16.5556 2.5329 16.5556C2.23453 16.5556 1.94838 16.4391 1.7374 16.2318C1.52643 16.0246 1.4079 15.7434 1.4079 15.4503C1.4079 15.1572 1.52643 14.876 1.7374 14.6688C1.94838 14.4615 2.23453 14.345 2.5329 14.345C3.86305 14.3415 5.18069 14.5973 6.40957 15.0974C7.63845 15.5975 8.75416 16.3322 9.69212 17.2588ZM2.5329 7.71345C2.23453 7.71345 1.94838 7.8299 1.7374 8.03717C1.52643 8.24445 1.4079 8.52558 1.4079 8.81871C1.4079 9.11185 1.52643 9.39298 1.7374 9.60025C1.94838 9.80753 2.23453 9.92398 2.5329 9.92398C6.41169 9.92398 10.1316 11.4378 12.8743 14.1324C15.6171 16.827 17.1579 20.4817 17.1579 24.2924C17.1579 24.5855 17.2764 24.8667 17.4874 25.0739C17.6984 25.2812 17.9845 25.3977 18.2829 25.3977C18.5813 25.3977 18.8674 25.2812 19.0784 25.0739C19.2894 24.8667 19.4079 24.5855 19.4079 24.2924C19.4079 19.8954 17.63 15.6785 14.4653 12.5693C11.3006 9.46016 7.00843 7.71345 2.5329 7.71345ZM19.2377 7.88062C17.0492 5.71847 14.4459 4.00427 11.5785 2.83726C8.71112 1.67025 5.63659 1.07361 2.5329 1.08187C2.23453 1.08187 1.94838 1.19832 1.7374 1.4056C1.52643 1.61287 1.4079 1.894 1.4079 2.18713C1.4079 2.48027 1.52643 2.7614 1.7374 2.96867C1.94838 3.17595 2.23453 3.2924 2.5329 3.2924C5.34104 3.28483 8.12282 3.82457 10.7172 4.88035C13.3116 5.93614 15.6671 7.48701 17.6473 9.44319C19.6384 11.3886 21.2169 13.7028 22.2916 16.2517C23.3662 18.8005 23.9156 21.5335 23.9079 24.2924C23.9079 24.5855 24.0264 24.8667 24.2374 25.0739C24.4484 25.2812 24.7345 25.3977 25.0329 25.3977C25.3313 25.3977 25.6174 25.2812 25.8284 25.0739C26.0394 24.8667 26.1579 24.5855 26.1579 24.2924C26.1662 21.2432 25.5589 18.2226 24.3711 15.4055C23.1832 12.5884 21.4384 10.0308 19.2377 7.88062ZM3.0954 22.0819C2.76164 22.0819 2.43538 22.1791 2.15787 22.3613C1.88037 22.5434 1.66407 22.8024 1.53635 23.1053C1.40863 23.4083 1.37521 23.7416 1.44032 24.0632C1.50544 24.3848 1.66615 24.6802 1.90216 24.9121C2.13816 25.1439 2.43884 25.3018 2.76618 25.3658C3.09353 25.4298 3.43283 25.3969 3.74118 25.2715C4.04953 25.146 4.31308 24.9335 4.4985 24.6608C4.68393 24.3882 4.7829 24.0677 4.7829 23.7398C4.7829 23.3001 4.60511 22.8784 4.28864 22.5675C3.97217 22.2565 3.54295 22.0819 3.0954 22.0819Z" fill="#B0F90A"/>
</svg>
