<svg width="28" height="28" viewBox="0 0 28 28" fill="none" xmlns="http://www.w3.org/2000/svg">
<g clip-path="url(#clip0_8_36)">
<path opacity="0.2" d="M12.2314 18.8871C12.2314 19.7178 11.985 20.5298 11.5235 21.2205C11.062 21.9112 10.4061 22.4495 9.63863 22.7674C8.87118 23.0853 8.0267 23.1685 7.21198 23.0064C6.39726 22.8444 5.64889 22.4443 5.06151 21.857C4.47413 21.2696 4.07412 20.5212 3.91206 19.7065C3.75001 18.8918 3.83318 18.0473 4.15107 17.2798C4.46896 16.5124 5.00728 15.8564 5.69797 15.3949C6.38865 14.9334 7.20068 14.6871 8.03136 14.6871C9.14527 14.6871 10.2136 15.1296 11.0012 15.9173C11.7889 16.7049 12.2314 17.7732 12.2314 18.8871ZM8.03136 1.03711C7.20068 1.03711 6.38865 1.28344 5.69797 1.74494C5.00728 2.20644 4.46896 2.86239 4.15107 3.62984C3.83318 4.39729 3.75001 5.24177 3.91206 6.05649C4.07412 6.87121 4.47413 7.61958 5.06151 8.20696C5.64889 8.79434 6.39726 9.19435 7.21198 9.35641C8.0267 9.51847 8.87118 9.43529 9.63863 9.11741C10.4061 8.79952 11.062 8.26119 11.5235 7.57051C11.985 6.87982 12.2314 6.06779 12.2314 5.23711C12.2314 4.1232 11.7889 3.05492 11.0012 2.26726C10.2136 1.47961 9.14527 1.03711 8.03136 1.03711ZM20.6314 14.6871C19.8007 14.6871 18.9887 14.9334 18.298 15.3949C17.6073 15.8564 17.069 16.5124 16.7511 17.2798C16.4332 18.0473 16.35 18.8918 16.5121 19.7065C16.6741 20.5212 17.0741 21.2696 17.6615 21.857C18.2489 22.4443 18.9973 22.8444 19.812 23.0064C20.6267 23.1685 21.4712 23.0853 22.2386 22.7674C23.0061 22.4495 23.662 21.9112 24.1235 21.2205C24.585 20.5298 24.8314 19.7178 24.8314 18.8871C24.8314 17.7732 24.3889 16.7049 23.6012 15.9173C22.8136 15.1296 21.7453 14.6871 20.6314 14.6871ZM20.6314 9.43711C21.462 9.43711 22.2741 9.19079 22.9648 8.72928C23.6554 8.26778 24.1938 7.61183 24.5117 6.84438C24.8295 6.07693 24.9127 5.23245 24.7507 4.41773C24.5886 3.60301 24.1886 2.85464 23.6012 2.26726C23.0138 1.67988 22.2655 1.27987 21.4507 1.11781C20.636 0.955755 19.7915 1.03893 19.0241 1.35682C18.2566 1.67471 17.6007 2.21303 17.1392 2.90372C16.6777 3.5944 16.4314 4.40643 16.4314 5.23711C16.4314 6.35102 16.8739 7.41931 17.6615 8.20696C18.4492 8.99461 19.5175 9.43711 20.6314 9.43711Z" fill="#B0F90A"/>
<path d="M1.10137 13.4269C1.21168 13.5096 1.3372 13.5698 1.47078 13.604C1.60435 13.6382 1.74336 13.6458 1.87986 13.6263C2.01636 13.6068 2.14768 13.5606 2.26633 13.4904C2.38498 13.4201 2.48863 13.3272 2.57137 13.2169C3.20709 12.3692 4.03144 11.6812 4.97913 11.2074C5.92682 10.7336 6.97182 10.4869 8.03137 10.4869C9.09091 10.4869 10.1359 10.7336 11.0836 11.2074C12.0313 11.6812 12.8556 12.3692 13.4914 13.2169C13.6586 13.4394 13.9075 13.5865 14.1832 13.6256C14.4588 13.6647 14.7387 13.5928 14.9614 13.4256C15.0407 13.3665 15.111 13.2962 15.1701 13.2169C15.8058 12.3692 16.6301 11.6812 17.5778 11.2074C18.5255 10.7336 19.5705 10.4869 20.6301 10.4869C21.6896 10.4869 22.7346 10.7336 23.6823 11.2074C24.63 11.6812 25.4543 12.3692 26.0901 13.2169C26.2573 13.4396 26.5062 13.5869 26.782 13.6261C27.0578 13.6654 27.3379 13.5935 27.5607 13.4262C27.7835 13.2589 27.9307 13.01 27.97 12.7342C28.0092 12.4584 27.9373 12.1783 27.7701 11.9556C26.8406 10.7096 25.6012 9.72854 24.1751 9.11005C24.957 8.39624 25.5047 7.46272 25.7465 6.43202C25.9883 5.40133 25.9129 4.3216 25.5301 3.33455C25.1473 2.34751 24.475 1.49925 23.6015 0.901117C22.7279 0.302981 21.694 -0.0170898 20.6353 -0.0170898C19.5766 -0.0170898 18.5427 0.302981 17.6691 0.901117C16.7956 1.49925 16.1233 2.34751 15.7405 3.33455C15.3577 4.3216 15.2823 5.40133 15.5241 6.43202C15.7659 7.46272 16.3137 8.39624 17.0955 9.11005C16.0658 9.55532 15.1303 10.1928 14.3392 10.9882C13.5482 10.1928 12.6127 9.55532 11.583 9.11005C12.3648 8.39624 12.9126 7.46272 13.1544 6.43202C13.3962 5.40133 13.3208 4.3216 12.9379 3.33455C12.5551 2.34751 11.8829 1.49925 11.0093 0.901117C10.1358 0.302981 9.10186 -0.0170898 8.04318 -0.0170898C6.9845 -0.0170898 5.95055 0.302981 5.07702 0.901117C4.2035 1.49925 3.53122 2.34751 3.14841 3.33455C2.7656 4.3216 2.69015 5.40133 2.93195 6.43202C3.17376 7.46272 3.72153 8.39624 4.50337 9.11005C3.07097 9.72652 1.82547 10.7082 0.891366 11.9569C0.808633 12.0672 0.748438 12.1927 0.714217 12.3263C0.679995 12.4598 0.672419 12.5989 0.691919 12.7354C0.711419 12.8719 0.757615 13.0032 0.827868 13.1218C0.898121 13.2405 0.991056 13.3441 1.10137 13.4269ZM20.6314 2.08686C21.2544 2.08686 21.8634 2.27161 22.3814 2.61774C22.8994 2.96386 23.3032 3.45582 23.5416 4.03141C23.78 4.607 23.8424 5.24036 23.7208 5.8514C23.5993 6.46244 23.2993 7.02372 22.8588 7.46425C22.4182 7.90479 21.8569 8.20479 21.2459 8.32634C20.6349 8.44788 20.0015 8.3855 19.4259 8.14709C18.8503 7.90867 18.3584 7.50493 18.0122 6.98691C17.6661 6.4689 17.4814 5.85988 17.4814 5.23686C17.4814 4.40143 17.8132 3.60022 18.404 3.00948C18.9947 2.41874 19.7959 2.08686 20.6314 2.08686ZM8.03137 2.08686C8.65438 2.08686 9.2634 2.27161 9.78141 2.61774C10.2994 2.96386 10.7032 3.45582 10.9416 4.03141C11.18 4.607 11.2424 5.24036 11.1208 5.8514C10.9993 6.46244 10.6993 7.02372 10.2588 7.46425C9.81822 7.90479 9.25694 8.20479 8.6459 8.32634C8.03486 8.44788 7.4015 8.3855 6.82591 8.14709C6.25033 7.90867 5.75836 7.50493 5.41224 6.98691C5.06611 6.4689 4.88137 5.85988 4.88137 5.23686C4.88137 4.40143 5.21324 3.60022 5.80398 3.00948C6.39472 2.41874 7.19593 2.08686 8.03137 2.08686ZM24.1751 22.76C24.957 22.0462 25.5047 21.1127 25.7465 20.082C25.9883 19.0513 25.9129 17.9716 25.5301 16.9846C25.1473 15.9975 24.475 15.1493 23.6015 14.5511C22.7279 13.953 21.694 13.6329 20.6353 13.6329C19.5766 13.6329 18.5427 13.953 17.6691 14.5511C16.7956 15.1493 16.1233 15.9975 15.7405 16.9846C15.3577 17.9716 15.2823 19.0513 15.5241 20.082C15.7659 21.1127 16.3137 22.0462 17.0955 22.76C16.0658 23.2053 15.1303 23.8428 14.3392 24.6382C13.5482 23.8428 12.6127 23.2053 11.583 22.76C12.3648 22.0462 12.9126 21.1127 13.1544 20.082C13.3962 19.0513 13.3208 17.9716 12.9379 16.9846C12.5551 15.9975 11.8829 15.1493 11.0093 14.5511C10.1358 13.953 9.10186 13.6329 8.04318 13.6329C6.9845 13.6329 5.95055 13.953 5.07702 14.5511C4.2035 15.1493 3.53122 15.9975 3.14841 16.9846C2.7656 17.9716 2.69015 19.0513 2.93195 20.082C3.17376 21.1127 3.72153 22.0462 4.50337 22.76C3.07097 23.3765 1.82547 24.3582 0.891366 25.6069C0.808633 25.7172 0.748438 25.8427 0.714217 25.9763C0.679995 26.1098 0.672419 26.2489 0.691919 26.3854C0.711419 26.5219 0.757615 26.6532 0.827868 26.7718C0.898121 26.8905 0.991056 26.9941 1.10137 27.0769C1.21168 27.1596 1.3372 27.2198 1.47078 27.254C1.60435 27.2882 1.74336 27.2958 1.87986 27.2763C2.01636 27.2568 2.14768 27.2106 2.26633 27.1404C2.38498 27.0701 2.48863 26.9772 2.57137 26.8669C3.20709 26.0192 4.03144 25.3312 4.97913 24.8574C5.92682 24.3836 6.97182 24.1369 8.03137 24.1369C9.09091 24.1369 10.1359 24.3836 11.0836 24.8574C12.0313 25.3312 12.8556 26.0192 13.4914 26.8669C13.6586 27.0894 13.9075 27.2365 14.1832 27.2756C14.4588 27.3147 14.7387 27.2428 14.9614 27.0756C15.0407 27.0165 15.111 26.9462 15.1701 26.8669C15.8058 26.0192 16.6301 25.3312 17.5778 24.8574C18.5255 24.3836 19.5705 24.1369 20.6301 24.1369C21.6896 24.1369 22.7346 24.3836 23.6823 24.8574C24.63 25.3312 25.4543 26.0192 26.0901 26.8669C26.2573 27.0896 26.5062 27.2369 26.782 27.2761C27.0578 27.3154 27.3379 27.2435 27.5607 27.0762C27.7835 26.9089 27.9307 26.66 27.97 26.3842C28.0092 26.1084 27.9373 25.8283 27.7701 25.6056C26.8406 24.3596 25.6012 23.3785 24.1751 22.76ZM8.03137 15.7369C8.65438 15.7369 9.2634 15.9216 9.78141 16.2677C10.2994 16.6139 10.7032 17.1058 10.9416 17.6814C11.18 18.257 11.2424 18.8904 11.1208 19.5014C10.9993 20.1124 10.6993 20.6737 10.2588 21.1143C9.81822 21.5548 9.25694 21.8548 8.6459 21.9763C8.03486 22.0979 7.4015 22.0355 6.82591 21.7971C6.25033 21.5587 5.75836 21.1549 5.41224 20.6369C5.06611 20.1189 4.88137 19.5099 4.88137 18.8869C4.88137 18.0514 5.21324 17.2502 5.80398 16.6595C6.39472 16.0687 7.19593 15.7369 8.03137 15.7369ZM20.6314 15.7369C21.2544 15.7369 21.8634 15.9216 22.3814 16.2677C22.8994 16.6139 23.3032 17.1058 23.5416 17.6814C23.78 18.257 23.8424 18.8904 23.7208 19.5014C23.5993 20.1124 23.2993 20.6737 22.8588 21.1143C22.4182 21.5548 21.8569 21.8548 21.2459 21.9763C20.6349 22.0979 20.0015 22.0355 19.4259 21.7971C18.8503 21.5587 18.3584 21.1549 18.0122 20.6369C17.6661 20.1189 17.4814 19.5099 17.4814 18.8869C17.4814 18.0514 17.8132 17.2502 18.404 16.6595C18.9947 16.0687 19.7959 15.7369 20.6314 15.7369Z" fill="#B0F90A"/>
</g>
<defs>
<clipPath id="clip0_8_36">
<rect width="28" height="28" fill="white"/>
</clipPath>
</defs>
</svg>
