<svg width="36" height="28" viewBox="0 0 36 28" fill="none" xmlns="http://www.w3.org/2000/svg">
<g clip-path="url(#clip0_8_33)">
<path opacity="0.2" d="M2.61971 17.6211H7.31537V25.7877H2.61971C2.30837 25.7877 2.00978 25.6648 1.78963 25.446C1.56948 25.2272 1.4458 24.9305 1.4458 24.6211V18.7877C1.4458 18.4783 1.56948 18.1816 1.78963 17.9628C2.00978 17.744 2.30837 17.6211 2.61971 17.6211ZM28.525 1.28775C27.3823 1.27442 26.2615 1.6004 25.3063 2.22394C24.351 2.84747 23.6048 3.74018 23.1632 4.78775C22.7216 3.74018 21.9753 2.84747 21.0201 2.22394C20.0649 1.6004 18.9441 1.27442 17.8013 1.28775C14.6039 1.28775 12.011 3.95795 12.011 7.12108C12.011 9.24441 13.0382 11.1621 14.466 12.9544H20.8154C21.5937 12.9544 22.3402 13.2617 22.8906 13.8087C23.4409 14.3557 23.7501 15.0975 23.7501 15.8711C23.7501 16.6446 23.4409 17.3865 22.8906 17.9335C22.3402 18.4805 21.5937 18.7877 20.8154 18.7877H21.4023L26.9461 17.5219C30.1803 15.1521 34.3154 11.3838 34.3154 7.12108C34.3154 3.95795 31.7225 1.28775 28.525 1.28775Z" fill="#B0F90A"/>
<path d="M34.0703 16.0258C33.6864 15.7318 33.2464 15.5185 32.7769 15.3989C32.3074 15.2793 31.8183 15.2559 31.3395 15.3302C34.0952 12.5652 35.4893 9.81623 35.4893 7.12123C35.4893 3.26102 32.3652 0.121231 28.525 0.121231C27.5061 0.114871 26.4981 0.330246 25.5718 0.752234C24.6455 1.17422 23.8234 1.79259 23.1632 2.56394C22.503 1.79259 21.6808 1.17422 20.7546 0.752234C19.8283 0.330246 18.8203 0.114871 17.8013 0.121231C13.9612 0.121231 10.8371 3.26102 10.8371 7.12123C10.8371 8.7254 11.3125 10.2844 12.3133 11.9337C11.4937 12.1401 10.7457 12.5635 10.1489 13.1587L6.82965 16.4546H2.61971C1.99702 16.4546 1.39985 16.7004 0.959543 17.138C0.519241 17.5756 0.271881 18.1691 0.271881 18.7879L0.271881 24.6212C0.271881 25.2401 0.519241 25.8336 0.959543 26.2711C1.39985 26.7087 1.99702 26.9546 2.61971 26.9546H17.8806C17.9766 26.9546 18.0722 26.9429 18.1653 26.9196L27.5566 24.5862C27.6164 24.5721 27.6749 24.5525 27.7312 24.5279L33.4349 22.1158L33.4995 22.0866C34.0477 21.8144 34.5171 21.408 34.8635 20.9056C35.2099 20.4033 35.422 19.8215 35.4797 19.2152C35.5374 18.6089 35.4388 17.998 35.1933 17.44C34.9477 16.882 34.5633 16.3953 34.0762 16.0258H34.0703ZM17.8013 2.45456C18.7106 2.44134 19.6031 2.69792 20.3648 3.19151C21.1265 3.68509 21.7227 4.39324 22.0773 5.2254C22.1658 5.43938 22.3162 5.6224 22.5096 5.7512C22.7029 5.88 22.9304 5.94877 23.1632 5.94877C23.396 5.94877 23.6235 5.88 23.8168 5.7512C24.0102 5.6224 24.1606 5.43938 24.2491 5.2254C24.6036 4.39324 25.1999 3.68509 25.9616 3.19151C26.7233 2.69792 27.6158 2.44134 28.525 2.45456C31.0269 2.45456 33.1414 4.59102 33.1414 7.12123C33.1414 9.96644 30.8244 13.185 26.4413 16.44L24.814 16.8119C24.9568 16.2122 24.9613 15.5881 24.8269 14.9865C24.6926 14.3849 24.4229 13.8213 24.0383 13.338C23.6536 12.8547 23.1638 12.4642 22.6056 12.1957C22.0475 11.9272 21.4354 11.7878 20.8154 11.7879H15.0456C13.7792 10.0904 13.1849 8.59706 13.1849 7.12123C13.1849 4.59102 15.2994 2.45456 17.8013 2.45456ZM2.61971 18.7879H6.14145V24.6212H2.61971V18.7879ZM32.4708 19.9852L26.8948 22.3448L17.7338 24.6212H8.48927V18.1039L11.81 14.8052C12.0272 14.5876 12.2858 14.415 12.5707 14.2976C12.8556 14.1802 13.1612 14.1203 13.4696 14.1212H20.8154C21.2824 14.1212 21.7303 14.3056 22.0605 14.6338C22.3907 14.962 22.5762 15.4071 22.5762 15.8712C22.5762 16.3354 22.3907 16.7805 22.0605 17.1087C21.7303 17.4369 21.2824 17.6212 20.8154 17.6212H16.7067C16.3953 17.6212 16.0967 17.7441 15.8766 17.9629C15.6564 18.1817 15.5328 18.4785 15.5328 18.7879C15.5328 19.0973 15.6564 19.3941 15.8766 19.6129C16.0967 19.8316 16.3953 19.9546 16.7067 19.9546H21.4023C21.4907 19.9543 21.5787 19.9445 21.665 19.9254L31.4965 17.6781L31.542 17.6664C31.8421 17.5836 32.1625 17.6141 32.4414 17.7519C32.7203 17.8897 32.938 18.1251 33.0528 18.4129C33.1675 18.7007 33.1711 19.0205 33.0629 19.3107C32.9546 19.601 32.7422 19.8412 32.4664 19.9852H32.4708Z" fill="#B0F90A"/>
</g>
<defs>
<clipPath id="clip0_8_33">
<rect width="36" height="28" fill="white"/>
</clipPath>
</defs>
</svg>
