<svg width="190" height="38" viewBox="0 0 190 38" fill="none" xmlns="http://www.w3.org/2000/svg">
<path d="M63.2732 4.50132C63.2732 3.66822 63.3875 2.96357 63.618 2.38737C63.8485 1.81301 64.1785 1.34691 64.61 0.992749C65.0415 0.638589 65.5726 0.38352 66.1995 0.231213C66.8283 0.077071 67.5346 0 68.3238 0C69.7731 0 70.9219 0.236718 71.7738 0.706485C72.6239 1.17625 73.107 1.99651 73.225 3.16358H70.8371C70.7449 2.61308 70.4849 2.25158 70.0571 2.07541C69.6311 1.90109 69.0521 1.81301 68.3238 1.81301C67.9384 1.81301 67.5825 1.8442 67.2543 1.90659C66.9279 1.96898 66.6476 2.07908 66.4134 2.23873C66.1774 2.39838 65.9967 2.61858 65.8658 2.90118C65.7367 3.1856 65.6722 3.5471 65.6722 3.98935V4.98943C65.6722 5.8574 65.9137 6.43727 66.4005 6.7272C66.8855 7.01897 67.5272 7.16394 68.3238 7.16394C69.0282 7.16394 69.5924 7.07769 70.0184 6.90704C70.4462 6.73638 70.7228 6.3969 70.8482 5.8886H73.2361C73.1015 7.00613 72.611 7.80069 71.7591 8.27046C70.909 8.74206 69.7621 8.97694 68.3238 8.97694C67.5346 8.97694 66.8283 8.90171 66.1995 8.75124C65.5707 8.60077 65.0415 8.35487 64.61 8.01356C64.1785 7.67224 63.8485 7.21165 63.618 6.63178C63.3875 6.05191 63.2732 5.34176 63.2732 4.49948V4.50132Z" fill="#F5F2EB"/>
<path d="M74.3804 5.17617V0.173889H76.7425V5.08809C76.7425 5.92303 76.9417 6.47537 77.34 6.75246C77.7383 7.02771 78.3357 7.16534 79.1305 7.16534C79.9252 7.16534 80.5208 7.02771 80.9154 6.75246C81.31 6.4772 81.5055 5.92303 81.5055 5.08809V0.173889H83.6427V5.17617C83.6427 6.51941 83.2646 7.4883 82.5049 8.08285C81.7471 8.67923 80.6222 8.97651 79.1305 8.97651C77.6387 8.97651 76.4125 8.67923 75.5993 8.08285C74.7861 7.4883 74.3804 6.51941 74.3804 5.17617Z" fill="#F5F2EB"/>
<path d="M85.3251 0.176331H91.2442C92.3174 0.176331 93.1103 0.438739 93.6266 0.963556C94.1411 1.49021 94.3992 2.21504 94.3992 3.1399C94.3992 4.06475 94.1411 4.82628 93.6266 5.35294C93.1103 5.87775 92.3174 6.14016 91.2442 6.14016H87.689V8.80278H85.3251V0.176331ZM91.9984 3.3289V2.97841C91.9984 2.69399 91.9117 2.46094 91.7402 2.27743C91.5687 2.09393 91.2903 2.00218 90.9049 2.00218H87.689V4.31615H90.9049C91.2903 4.31615 91.5687 4.22623 91.7402 4.0464C91.9117 3.86657 91.9984 3.62801 91.9984 3.32707V3.3289Z" fill="#F5F2EB"/>
<path d="M95.2411 4.42608C95.2411 3.59298 95.3609 2.892 95.5988 2.32498C95.8367 1.75795 96.1852 1.30103 96.6425 0.956048C97.098 0.609228 97.6641 0.36517 98.3389 0.218368C99.012 0.0734009 99.7865 0 100.657 0C101.527 0 102.289 0.0734009 102.964 0.218368C103.637 0.36517 104.203 0.611063 104.66 0.956048C105.116 1.30287 105.464 1.75979 105.704 2.32498C105.942 2.892 106.061 3.59114 106.061 4.42608C106.061 5.26102 105.942 6.00604 105.704 6.58958C105.464 7.17311 105.117 7.64105 104.66 7.9952C104.203 8.3512 103.637 8.6026 102.964 8.75307C102.289 8.90354 101.52 8.97878 100.657 8.97878C99.7938 8.97878 99.012 8.90354 98.3389 8.75307C97.6641 8.6026 97.098 8.3512 96.6425 7.9952C96.1852 7.64105 95.8385 7.17311 95.5988 6.58958C95.3609 6.00604 95.2411 5.28487 95.2411 4.42608ZM103.674 4.92704V4.01504C103.674 3.19845 103.419 2.62776 102.914 2.30112C102.407 1.97632 101.654 1.813 100.659 1.813C99.6629 1.813 98.9087 1.97632 98.3961 2.30112C97.8853 2.62592 97.6309 3.19845 97.6309 4.01504V4.92704C97.6309 5.79501 97.8853 6.38405 98.3961 6.69601C98.9069 7.0098 99.6611 7.16577 100.659 7.16577C101.656 7.16577 102.407 7.0098 102.914 6.69601C103.421 6.38405 103.674 5.79501 103.674 4.92704Z" fill="#F5F2EB"/>
<path d="M107.469 0.176331H109.833V6.89252H115.11V8.80645H107.469V0.176331Z" fill="#F5F2EB"/>
<path d="M119.03 0.176331H122.284L126.017 8.80462H123.553L122.736 6.89069H118.312L117.496 8.80462H115.285L119.03 0.176331ZM119.043 5.19146H122.008L120.525 1.71592L119.043 5.19146Z" fill="#F5F2EB"/>
<path d="M176.074 16.4312C180.608 16.4312 185.232 17.1818 185.232 22.4661V23.3068C185.232 27.4501 182.35 28.9513 178.476 29.3116L186.763 37.9285H181.599L173.402 29.3716H167.157L167.187 37.9285H163.314V16.4312H176.074ZM176.615 25.7988C179.167 25.7988 181.389 25.7387 181.389 23.2467V22.4961C181.389 21.175 180.698 20.5746 179.767 20.2743C179.257 20.1242 178.687 20.0341 178.086 20.0341C177.456 19.9741 176.825 20.0041 176.225 20.0041H167.127V25.7988H176.615Z" fill="#F5F2EB"/>
<path d="M148.291 25.0181V28.591H135.32V34.3556H152.314V37.9285H131.507V16.4312H152.314V20.0341H135.32V25.0181H148.291Z" fill="#F5F2EB"/>
<path d="M108.301 16.4312C111.934 16.4312 116.077 17.2419 118.419 20.1242C120.071 22.1658 120.521 24.808 120.521 27.2099C120.521 34.4757 116.167 37.9285 108.301 37.9285H97.8827V16.4312H108.301ZM108.301 34.3857C110.793 34.3857 113.826 33.9653 115.327 32.1339C116.408 30.8128 116.648 28.8612 116.648 27.1498C116.648 25.4685 116.408 23.547 115.327 22.2259C113.826 20.3944 110.793 19.9741 108.301 19.9741H101.696V34.3857H108.301Z" fill="#F5F2EB"/>
<path d="M86.8948 16.4312V37.9285H83.0817V16.4312H86.8948Z" fill="#F5F2EB"/>
<path d="M59.7893 37.9285C57.0571 37.9285 53.7244 37.8685 51.8029 35.5266C51.2925 34.8961 50.9322 34.1455 50.8121 33.3648C50.692 32.7944 50.692 32.1939 50.692 31.5934V30.1523H54.5351V31.8036C54.5351 32.0738 54.5351 32.344 54.5951 32.6142C54.7453 33.515 55.4358 33.9353 56.3966 34.1755C56.907 34.2956 57.4474 34.3556 57.9578 34.3556C58.4983 34.3857 59.0087 34.3857 59.459 34.3857H63.6024C64.5031 34.3857 65.584 34.3857 66.5147 34.1455C67.4154 33.9053 68.076 33.4549 68.2261 32.6142C68.2861 32.344 68.2861 32.1038 68.2861 31.8336V31.3232C68.2861 30.0322 67.5656 29.4617 66.5147 29.1915C65.9743 29.0414 65.3738 28.9813 64.7433 28.9513H62.8818H59.6992C56.967 28.9513 53.5743 28.8612 51.6227 26.5193C50.662 25.3484 50.5419 24.0874 50.5419 22.7363V22.316C50.5419 17.0617 55.2857 16.4312 59.6992 16.4312H62.7917C65.4939 16.4312 68.9767 16.4913 70.8682 18.8632C71.3786 19.4937 71.7089 20.2143 71.859 20.9949C71.9791 21.5954 71.9791 22.1959 71.9791 22.8264V24.2075H68.106V22.6162C68.106 22.316 68.106 22.0157 68.076 21.7455C67.9258 20.8448 67.2053 20.3944 66.2745 20.1842C65.7641 20.0642 65.2537 20.0341 64.7433 20.0041C64.2029 19.9741 63.6924 19.9741 63.2421 19.9741H59.2789C58.6184 19.9741 57.6576 19.9441 56.7569 20.0942C55.8261 20.2143 55.1055 20.4845 54.7753 20.9348C54.415 21.4152 54.385 21.9557 54.385 22.6162V23.0365C54.385 24.3576 55.1356 24.898 56.1264 25.1683C56.6668 25.3184 57.2973 25.3784 57.9278 25.4084C58.5583 25.4385 59.1888 25.4084 59.7893 25.4084H62.9719C65.674 25.4084 69.0968 25.4685 70.9883 27.8104C71.9791 29.0113 72.1292 30.2123 72.1292 31.5634V32.0438C72.1292 37.298 67.3554 37.9285 62.9719 37.9285H59.7893Z" fill="#F5F2EB"/>
<path d="M17.3277 37.9285V16.4312H20.24L35.7024 31.8937V16.4312H39.5756V37.9285H36.6032L21.1708 22.4361L21.1407 37.9285H17.3277Z" fill="#F5F2EB"/>
<path d="M6.33977 16.4312V37.9285H2.5267V16.4312H6.33977Z" fill="#F5F2EB"/>
</svg>
