<svg width="21" height="21" viewBox="0 0 21 21" fill="none" xmlns="http://www.w3.org/2000/svg">
<path d="M10.5 0C7.64838 0 7.2908 0.0120976 6.17085 0.0631762C5.05325 0.114161 4.28998 0.291686 3.62208 0.551205C2.93161 0.81954 2.34605 1.17859 1.76234 1.76231C1.17859 2.34602 0.81954 2.93164 0.551236 3.62211C0.291655 4.28998 0.114192 5.05325 0.0631449 6.17085C0.0120663 7.2908 0 7.64838 0 10.5C0 13.3516 0.0120663 13.7092 0.0631449 14.8291C0.114192 15.9467 0.291655 16.71 0.551236 17.3779C0.819571 18.0684 1.17862 18.6539 1.76234 19.2377C2.34608 19.8214 2.93161 20.1805 3.62208 20.4488C4.28998 20.7083 5.05325 20.8858 6.17085 20.9368C7.2908 20.9879 7.64838 21 10.5 21C13.3516 21 13.7092 20.9879 14.8291 20.9368C15.9467 20.8858 16.71 20.7083 17.3779 20.4488C18.0684 20.1805 18.6539 19.8214 19.2377 19.2377C19.8214 18.6539 20.1805 18.0684 20.4488 17.3779C20.7083 16.71 20.8858 15.9467 20.9368 14.8291C20.9879 13.7092 21 13.3516 21 10.5C21 7.64838 20.9879 7.2908 20.9368 6.17085C20.8858 5.05325 20.7083 4.28998 20.4488 3.62211C20.1805 2.93164 19.8214 2.34602 19.2377 1.76231C18.6539 1.17859 18.0684 0.81954 17.3779 0.551205C16.71 0.291686 15.9467 0.114161 14.8291 0.0631762C13.7092 0.0120976 13.3516 0 10.5 0ZM10.5 1.89188C13.3036 1.89188 13.6357 1.9026 14.7429 1.95312C15.7667 1.99979 16.3226 2.17084 16.6926 2.31464C17.1827 2.50513 17.5325 2.73264 17.8999 3.10007C18.2674 3.4675 18.4949 3.8173 18.6854 4.30739C18.8292 4.67738 19.0002 5.23337 19.0469 6.2571C19.0974 7.36429 19.1081 7.6964 19.1081 10.5C19.1081 13.3036 19.0974 13.6357 19.0469 14.7429C19.0002 15.7667 18.8292 16.3226 18.6854 16.6926C18.4949 17.1827 18.2674 17.5325 17.8999 17.8999C17.5325 18.2674 17.1827 18.4949 16.6926 18.6854C16.3226 18.8292 15.7666 19.0002 14.7429 19.0469C13.6359 19.0974 13.3038 19.1081 10.5 19.1081C7.69618 19.1081 7.36417 19.0974 6.2571 19.0469C5.23334 19.0002 4.67738 18.8292 4.30742 18.6854C3.81727 18.4949 3.4675 18.2674 3.1001 17.8999C2.73267 17.5325 2.50513 17.1827 2.31464 16.6926C2.17084 16.3226 1.99982 15.7666 1.95312 14.7429C1.9026 13.6357 1.89188 13.3036 1.89188 10.5C1.89188 7.6964 1.9026 7.36429 1.95312 6.2571C1.99982 5.23334 2.17084 4.67738 2.31464 4.30742C2.50513 3.81727 2.73267 3.4675 3.10007 3.1001C3.4675 2.73264 3.8173 2.50513 4.30739 2.31464C4.67738 2.17084 5.23337 1.99979 6.2571 1.95312C7.36429 1.9026 7.6964 1.89188 10.5 1.89188" fill="white"/>
<path d="M10.4998 13.9997C8.56678 13.9997 6.99979 12.4327 6.99979 10.4997C6.99979 8.5667 8.56678 6.9997 10.4998 6.9997C12.4328 6.9997 13.9998 8.5667 13.9998 10.4997C13.9998 12.4327 12.4328 13.9997 10.4998 13.9997ZM10.4998 5.10782C7.52192 5.10782 5.10791 7.52183 5.10791 10.4997C5.10791 13.4776 7.52192 15.8916 10.4998 15.8916C13.4777 15.8916 15.8917 13.4776 15.8917 10.4997C15.8917 7.52183 13.4777 5.10782 10.4998 5.10782ZM17.3647 4.89479C17.3647 5.59069 16.8006 6.15478 16.1047 6.15478C15.4089 6.15478 14.8447 5.59069 14.8447 4.89479C14.8447 4.19891 15.4089 3.63477 16.1047 3.63477C16.8006 3.63477 17.3647 4.19891 17.3647 4.89479Z" fill="white"/>
</svg>
