<svg width="105" height="19" viewBox="0 0 105 19" fill="none" xmlns="http://www.w3.org/2000/svg">
<g clip-path="url(#clip0_1_45)">
<path d="M10.9941 15.2017H8.07926C7.83078 15.2017 7.62935 15.4023 7.62935 15.6499V18.5539C7.62935 18.8015 7.83078 19.0021 8.07926 19.0021H10.9941C11.2426 19.0021 11.444 18.8015 11.444 18.5539V15.6499C11.444 15.4023 11.2426 15.2017 10.9941 15.2017Z" fill="#B0F90A"/>
<path d="M3.36479 7.60107H0.449915C0.201434 7.60107 0 7.80176 0 8.04931V10.9533C0 11.2009 0.201434 11.4016 0.449915 11.4016H3.36479C3.61327 11.4016 3.8147 11.2009 3.8147 10.9533V8.04931C3.8147 7.80176 3.61327 7.60107 3.36479 7.60107Z" fill="#B0F90A"/>
<path d="M14.8095 3.80029H11.8947C11.6462 3.80029 11.4448 4.00098 11.4448 4.24853V7.15253C11.4448 7.40009 11.6462 7.60077 11.8947 7.60077H14.8095C15.058 7.60077 15.2595 7.40009 15.2595 7.15253V4.24853C15.2595 4.00098 15.058 3.80029 14.8095 3.80029Z" fill="#B0F90A"/>
<path d="M10.994 0H8.07913C7.83024 0 7.62922 0.200276 7.62922 0.448237V0.727193C7.62922 2.42477 6.24597 3.79809 4.54443 3.79809H4.26682C4.01794 3.79809 3.81691 3.99837 3.81691 4.24633V7.15033C3.81691 7.39829 4.01794 7.59857 4.26682 7.59857H7.1817C7.43058 7.59857 7.63161 7.39829 7.63161 7.15033V6.87138C7.63161 5.1738 9.01486 3.80048 10.7164 3.80048H10.994C11.2429 3.80048 11.4439 3.6002 11.4439 3.35224V0.448237C11.4439 0.200276 11.2429 0 10.994 0Z" fill="#B0F90A"/>
<path d="M18.6213 7.60107H15.7064C15.4575 7.60107 15.2565 7.80135 15.2565 8.04931V8.32827C15.2565 10.0258 13.8732 11.3992 12.1717 11.3992H11.8917C11.6428 11.3992 11.4418 11.5994 11.4418 11.8474V14.7514C11.4418 14.9994 11.6428 15.1996 11.8917 15.1996H14.8066C15.0554 15.1996 15.2565 14.9994 15.2565 14.7514V14.4725C15.2565 12.7749 16.6397 11.4016 18.3413 11.4016H18.6189C18.8678 11.4016 19.0688 11.2013 19.0688 10.9533V8.04931C19.0688 7.80135 18.8678 7.60107 18.6189 7.60107H18.6213Z" fill="#B0F90A"/>
<path d="M10.994 7.60107H8.07913C7.83024 7.60107 7.62922 7.80135 7.62922 8.04931V8.32827C7.62922 10.0258 6.24597 11.3992 4.54443 11.3992H4.26682C4.01794 11.3992 3.81691 11.5994 3.81691 11.8474V14.7514C3.81691 14.9994 4.01794 15.1996 4.26682 15.1996H7.1817C7.43058 15.1996 7.63161 14.9994 7.63161 14.7514V14.4725C7.63161 12.7749 9.01486 11.4016 10.7164 11.4016H10.994C11.2429 11.4016 11.4439 11.2013 11.4439 10.9533V8.04931C11.4439 7.80135 11.2429 7.60107 10.994 7.60107Z" fill="#B0F90A"/>
<path d="M23.571 9.51797C23.571 8.43553 23.7194 7.51998 24.0185 6.77133C24.3177 6.02506 24.746 5.41946 25.306 4.95931C25.866 4.49915 26.5553 4.16774 27.3689 3.96985C28.185 3.76957 29.1016 3.66943 30.1259 3.66943C32.0069 3.66943 33.4978 3.977 34.6035 4.58737C35.7067 5.19773 36.3337 6.26349 36.4869 7.77986H33.3877C33.2681 7.06459 32.9306 6.5949 32.3754 6.36601C31.8226 6.13951 31.0712 6.02506 30.1259 6.02506C29.6257 6.02506 29.1638 6.06559 28.7378 6.14666C28.3142 6.22772 27.9505 6.37078 27.6465 6.57821C27.3402 6.78563 27.1057 7.07174 26.9358 7.43892C26.7683 7.80847 26.6845 8.27817 26.6845 8.85277V10.1522C26.6845 11.2799 26.998 12.0333 27.6298 12.4101C28.2592 12.7891 29.092 12.9775 30.1259 12.9775C31.04 12.9775 31.7724 12.8654 32.3252 12.6437C32.8804 12.422 33.2394 11.9809 33.4021 11.3205H36.5012C36.3265 12.7725 35.69 13.8048 34.5843 14.4152C33.4811 15.0279 31.9925 15.3331 30.1259 15.3331C29.1016 15.3331 28.185 15.2354 27.3689 15.0399C26.5529 14.8444 25.866 14.5249 25.306 14.0814C24.746 13.6379 24.3177 13.0395 24.0185 12.2861C23.7194 11.5327 23.571 10.61 23.571 9.51559V9.51797Z" fill="white"/>
<path d="M37.9863 10.393V3.89355H41.052V10.2785C41.052 11.3634 41.3104 12.081 41.8274 12.4411C42.3443 12.7987 43.1197 12.9775 44.1511 12.9775C45.1826 12.9775 45.9556 12.7987 46.4677 12.4411C46.9798 12.0834 47.2335 11.3634 47.2335 10.2785V3.89355H50.0072V10.393C50.0072 12.1383 49.5166 13.3971 48.5306 14.1696C47.547 14.9445 46.0872 15.3307 44.1511 15.3307C42.215 15.3307 40.6236 14.9445 39.5682 14.1696C38.5128 13.3971 37.9863 12.1383 37.9863 10.393Z" fill="white"/>
<path d="M52.1907 3.89648H59.8728C61.2656 3.89648 62.2946 4.23743 62.9647 4.91932C63.6324 5.6036 63.9675 6.54537 63.9675 7.74703C63.9675 8.94869 63.6324 9.93815 62.9647 10.6224C62.2946 11.3043 61.2656 11.6453 59.8728 11.6453H55.2587V15.1048H52.1907V3.89648ZM60.8516 7.99261V7.53722C60.8516 7.16766 60.7391 6.86486 60.5165 6.62644C60.294 6.38801 59.9326 6.2688 59.4324 6.2688H55.2587V9.27533H59.4324C59.9326 9.27533 60.294 9.1585 60.5165 8.92484C60.7391 8.69119 60.8516 8.38124 60.8516 7.99022V7.99261Z" fill="white"/>
<path d="M65.0587 9.42022C65.0587 8.33777 65.2142 7.42699 65.523 6.69026C65.8317 5.95353 66.284 5.35986 66.8775 4.91162C67.4686 4.461 68.2033 4.1439 69.0792 3.95316C69.9527 3.7648 70.9578 3.66943 72.0874 3.66943C73.217 3.66943 74.2054 3.7648 75.0813 3.95316C75.9548 4.1439 76.6895 4.46339 77.283 4.91162C77.8741 5.36224 78.3264 5.95592 78.6375 6.69026C78.9462 7.42699 79.1018 8.33539 79.1018 9.42022C79.1018 10.505 78.9462 11.473 78.6375 12.2312C78.3264 12.9894 77.8765 13.5974 77.283 14.0576C76.6895 14.5201 75.9548 14.8467 75.0813 15.0423C74.2054 15.2378 73.2074 15.3355 72.0874 15.3355C70.9674 15.3355 69.9527 15.2378 69.0792 15.0423C68.2033 14.8467 67.4686 14.5201 66.8775 14.0576C66.284 13.5974 65.8341 12.9894 65.523 12.2312C65.2142 11.473 65.0587 10.536 65.0587 9.42022ZM76.0026 10.0711V8.88615C76.0026 7.82516 75.6724 7.08366 75.0166 6.65927C74.3585 6.23726 73.3821 6.02506 72.0898 6.02506C70.7975 6.02506 69.8187 6.23726 69.1534 6.65927C68.4905 7.08128 68.1602 7.82516 68.1602 8.88615V10.0711C68.1602 11.1989 68.4905 11.9642 69.1534 12.3695C69.8163 12.7772 70.7951 12.9799 72.0898 12.9799C73.3845 12.9799 74.3585 12.7772 75.0166 12.3695C75.6748 11.9642 76.0026 11.1989 76.0026 10.0711Z" fill="white"/>
<path d="M80.9279 3.89648H83.996V12.6228H90.8452V15.1096H80.9279V3.89648Z" fill="white"/>
<path d="M95.932 3.89648H100.156L105 15.1072H101.802L100.742 12.6204H95.001L93.9409 15.1072H91.0715L95.932 3.89648ZM95.9487 10.4126H99.7969L97.8728 5.89686L95.9487 10.4126Z" fill="white"/>
</g>
<defs>
<clipPath id="clip0_1_45">
<rect width="105" height="19" fill="white"/>
</clipPath>
</defs>
</svg>
