<svg width="1440" height="169" viewBox="0 0 1440 169" fill="none" xmlns="http://www.w3.org/2000/svg">
<path d="M1355.94 -0.5C1373.66 -0.499978 1391.65 0.962493 1405.22 7.64453C1412.02 10.9911 1417.72 15.6529 1421.72 22.1025C1425.71 28.5518 1427.99 36.7547 1427.99 47.1504V53.7188C1427.99 70.037 1422.3 81.2172 1412.75 88.6553C1403.45 95.9036 1390.52 99.5522 1375.78 101.031L1439.81 167.613L1440.63 168.46H1398.89L1398.74 168.306L1334.85 101.604H1286.77L1287.01 167.958L1287.01 168.46H1255.74V-0.5H1355.94ZM1371.61 28.6475C1366.72 28.1813 1361.84 28.415 1357.11 28.415H1286.54V72.6895H1360.16C1370.16 72.6895 1379.39 72.5658 1386.12 70.0527C1389.46 68.8027 1392.16 66.9714 1394.03 64.2939C1395.89 61.6159 1396.96 58.0427 1396.96 53.25V47.3857C1396.96 42.3169 1395.64 38.6823 1393.47 36.0322C1391.29 33.3764 1388.23 31.6582 1384.65 30.5029C1380.7 29.3444 1376.3 28.6494 1371.66 28.6494H1371.63L1371.61 28.6475Z" fill="white" stroke="white"/>
<path d="M1170.8 -0.5V28.6494H1038.03V66.5898H1139.37V95.5049H1038.03V139.545H1170.8V168.46H1007.24V-0.5H1170.8Z" fill="white" stroke="white"/>
<path d="M826.423 -0.5C854.619 -0.5 886.909 5.7354 905.43 28.0088L905.865 28.5381V28.5391C918.872 44.62 922.397 65.3998 922.397 84.2148C922.397 112.702 913.859 133.796 897.533 147.756C881.221 161.704 857.215 168.46 826.423 168.46H744.523V-0.5H826.423ZM775.315 139.779H826.423C836.135 139.779 846.878 138.96 856.644 136.365C866.413 133.77 875.156 129.411 880.928 122.369L881.313 121.889C889.313 111.721 891.137 96.8925 891.137 83.7451C891.137 70.8313 889.314 56.2328 881.313 46.0713L880.928 45.5908C875.156 38.549 866.413 34.1902 856.644 31.5947C846.878 29.0003 836.135 28.1807 826.423 28.1807H775.315V139.779Z" fill="white" stroke="white"/>
<path d="M659.674 -0.5V168.46H628.882V-0.5H659.674Z" fill="white" stroke="white"/>
<path d="M470.855 -0.5C481.407 -0.5 493.539 -0.383942 504.887 2.0625C516.239 4.50992 526.86 9.29985 534.347 18.6865L534.721 19.1562C538.548 24.0333 541.037 29.5741 542.188 35.5586H542.189C543.139 40.3067 543.138 45.0481 543.138 49.9658V61.2568H511.876V48.3232C511.876 45.975 511.875 43.6625 511.645 41.5869C510.517 34.8601 505.146 31.434 497.957 29.8105L497.952 29.8096C494.013 28.8828 490.068 28.649 486.074 28.4141V28.4131C481.868 28.1794 477.894 28.1807 474.374 28.1807H443.409C438.225 28.1807 430.773 27.9481 423.787 29.1123L423.777 29.1133L423.769 29.1152C420.16 29.5808 416.981 30.3343 414.395 31.3975C411.806 32.4618 409.843 33.823 408.626 35.4824L408.622 35.4873C405.917 39.0937 405.673 43.1574 405.673 48.3232V51.6074C405.673 56.6658 407.106 60.1721 409.438 62.6729C411.636 65.0291 414.673 66.5395 418.198 67.5791L418.91 67.7803L418.912 67.7812C423.079 68.9387 427.96 69.4065 432.877 69.6406C437.789 69.8746 442.672 69.6396 447.397 69.6396H472.263C482.814 69.6396 494.829 69.7557 506.06 72.1729C517.296 74.5913 527.799 79.3229 535.285 88.5918H535.284C543.132 98.1063 544.31 107.629 544.311 118.229V121.982C544.31 132.323 541.96 140.426 537.867 146.756C533.774 153.085 527.961 157.606 521.092 160.818C507.377 167.233 489.39 168.46 472.263 168.46H447.397C436.729 168.46 424.831 168.344 413.717 165.927C402.595 163.508 392.214 158.775 384.612 149.511L384.61 149.508C380.575 144.523 377.717 138.578 376.764 132.38H376.763C375.817 127.871 375.819 123.135 375.819 118.463V106.703H406.846V120.105C406.846 122.093 406.847 124.024 407.223 125.946L407.303 126.331L407.306 126.344L407.308 126.356C407.873 129.75 409.449 132.222 411.788 134.082C414.14 135.952 417.285 137.22 421.003 138.15H421.004C424.953 139.08 429.137 139.545 433.088 139.545H433.102L433.115 139.546C437.322 139.78 441.297 139.779 444.817 139.779H477.189C484.241 139.779 492.619 139.777 499.818 137.919C506.776 136.063 511.7 132.636 512.822 126.352L512.824 126.341L512.826 126.331C513.282 124.281 513.284 122.456 513.284 120.34V116.353C513.284 111.409 511.907 107.902 509.575 105.373C507.232 102.833 503.876 101.224 499.819 100.181L499.81 100.179C495.646 99.0222 491.005 98.5546 486.097 98.3203H446.693C436.022 98.3203 424.008 98.146 412.748 95.6699C401.481 93.1924 390.926 88.402 383.207 79.1396L383.205 79.1367C375.583 69.8479 374.646 59.844 374.646 49.2617V45.9775C374.647 35.6377 376.981 27.534 381.056 21.2041C385.13 14.8746 390.922 10.3542 397.776 7.1416C411.462 0.72718 429.45 -0.499986 446.693 -0.5H470.855Z" fill="white" stroke="white"/>
<path d="M138.603 -0.5L138.749 -0.353516L258.705 119.603V-0.5H289.966V168.46H266.035L265.888 168.312L146.165 48.123L145.933 167.961L145.932 168.46H115.141V-0.5H138.603Z" fill="white" stroke="white"/>
<path d="M30.292 -0.5V168.46H-0.5V-0.5H30.292Z" fill="white" stroke="white"/>
</svg>
