<svg width="31" height="28" viewBox="0 0 31 28" fill="none" xmlns="http://www.w3.org/2000/svg">
<path opacity="0.2" d="M20.4254 6.16324V26.058L11.5682 21.6369V1.74219L20.4254 6.16324Z" fill="#B0F90A"/>
<path d="M29.9634 3.08089C29.8308 2.97772 29.6764 2.90607 29.5119 2.87136C29.3474 2.83665 29.1771 2.83979 29.014 2.88056L20.5541 4.99161L12.0637 0.752925C11.8271 0.635132 11.5561 0.605728 11.2997 0.670031L2.4426 2.88056C2.20309 2.94033 1.99045 3.0783 1.83849 3.27256C1.68654 3.46681 1.60398 3.70619 1.60394 3.95266V23.8474C1.60397 24.0153 1.64233 24.1811 1.71612 24.332C1.78991 24.4829 1.89718 24.6151 2.02979 24.7184C2.16239 24.8218 2.31685 24.8936 2.48142 24.9285C2.646 24.9633 2.81636 24.9602 2.97957 24.9195L11.4395 22.8085L19.9299 27.0471C20.0841 27.123 20.2535 27.1627 20.4254 27.1632C20.5159 27.1631 20.6061 27.152 20.6939 27.13L29.551 24.9195C29.7905 24.8597 30.0032 24.7218 30.1551 24.5275C30.3071 24.3333 30.3896 24.0939 30.3897 23.8474V3.95266C30.3897 3.78456 30.3513 3.61866 30.2775 3.46759C30.2036 3.31653 30.0962 3.18427 29.9634 3.08089ZM12.6754 3.5299L19.3182 6.84569V24.2702L12.6754 20.9544V3.5299ZM3.81823 4.81615L10.4611 3.15825V20.7734L3.81823 22.4313V4.81615ZM28.1754 22.9839L21.5325 24.6418V7.02668L28.1754 5.36878V22.9839Z" fill="#B0F90A"/>
</svg>
