<svg width="25" height="28" viewBox="0 0 25 28" fill="none" xmlns="http://www.w3.org/2000/svg">
<path opacity="0.2" d="M23.2745 2.97882V9.95007C23.2745 18.8038 18.4143 25.9788 12.4192 25.9788C6.42413 25.9788 1.56394 18.8038 1.56394 9.95257V2.97882C1.56373 2.81621 1.60266 2.65601 1.67735 2.51209C1.75204 2.36817 1.86023 2.24488 1.99256 2.1529C2.12489 2.06092 2.27735 2.00303 2.43674 1.98424C2.59613 1.96545 2.75764 1.98633 2.90727 2.04507C4.77117 2.78007 8.36204 3.94257 12.4192 3.94257C16.4764 3.94257 20.0672 2.78007 21.9311 2.04757C22.0806 1.98891 22.2418 1.968 22.401 1.98667C22.5602 2.00533 22.7126 2.063 22.8448 2.15469C22.9771 2.24639 23.0853 2.36934 23.1602 2.51293C23.235 2.65652 23.2743 2.81643 23.2745 2.97882Z" fill="#B0F90A"/>
<path d="M16.2013 20.5327C16.0563 20.7534 15.8308 20.9068 15.5743 20.9591C15.3177 21.0114 15.0512 20.9582 14.8333 20.8114C14.0315 20.2714 13.4061 19.9789 12.4192 19.9789C11.4324 19.9789 10.807 20.2714 10.0052 20.8114C9.78726 20.9528 9.52327 21.0018 9.27006 20.9479C9.01685 20.8939 8.79467 20.7414 8.65137 20.5231C8.50807 20.3048 8.45511 20.0382 8.5039 19.7807C8.55269 19.5232 8.69933 19.2954 8.91223 19.1464C9.95212 18.4452 10.9464 17.9789 12.4192 17.9789C13.8921 17.9789 14.8863 18.4452 15.9262 19.1464C16.1441 19.2933 16.2954 19.5219 16.347 19.7818C16.3986 20.0418 16.3462 20.3119 16.2013 20.5327ZM19.9858 11.2289C19.8893 11.1412 19.7767 11.0737 19.6544 11.0301C19.5321 10.9865 19.4025 10.9678 19.273 10.975C19.1436 10.9822 19.0168 11.0152 18.8999 11.072C18.7831 11.1289 18.6784 11.2085 18.5919 11.3064C18.2613 11.6814 17.5002 11.9739 16.8649 11.9739C16.2297 11.9739 15.4636 11.6802 15.138 11.3064C15.0512 11.2076 14.9461 11.1271 14.8287 11.0694C14.7112 11.0117 14.5837 10.9781 14.4534 10.9704C14.3231 10.9627 14.1926 10.981 14.0693 11.0244C13.946 11.0678 13.8323 11.1354 13.7348 11.2233C13.6373 11.3112 13.5578 11.4177 13.5009 11.5367C13.444 11.6558 13.4108 11.785 13.4032 11.917C13.3956 12.049 13.4137 12.1813 13.4565 12.3062C13.4993 12.4312 13.566 12.5463 13.6528 12.6452C14.3571 13.4427 15.6437 13.9789 16.86 13.9789C18.0763 13.9789 19.358 13.4427 20.0672 12.6452C20.1541 12.5469 20.2208 12.4323 20.2637 12.3078C20.3067 12.1833 20.3249 12.0515 20.3173 11.9199C20.3097 11.7882 20.2765 11.6594 20.2197 11.5409C20.1628 11.4223 20.0833 11.3163 19.9858 11.2289ZM24.2613 2.97891V9.95016C24.2613 14.4302 23.071 18.6564 20.9085 21.8477C18.6684 25.1552 15.6536 26.9727 12.4192 26.9727C9.18485 26.9727 6.17005 25.1514 3.92991 21.8477C1.7675 18.6589 0.577118 14.4327 0.577118 9.95266V2.97891C0.577231 2.65386 0.655525 2.33374 0.805223 2.04626C0.954921 1.75877 1.17151 1.5126 1.43624 1.32904C1.70097 1.14548 2.00586 1.03007 2.32452 0.992803C2.64318 0.955536 2.966 0.997534 3.26503 1.11516C4.99817 1.79766 8.49406 2.94266 12.4192 2.94266C16.3444 2.94266 19.839 1.79766 21.5734 1.11516C21.8724 0.997534 22.1953 0.955536 22.5139 0.992803C22.8326 1.03007 23.1375 1.14548 23.4022 1.32904C23.6669 1.5126 23.8835 1.75877 24.0332 2.04626C24.1829 2.33374 24.2612 2.65386 24.2613 2.97891ZM22.2876 2.97891C20.425 3.71516 16.6663 4.94516 12.4192 4.94516C8.1721 4.94516 4.41347 3.71266 2.5508 2.97891V9.95266C2.5508 14.0327 3.61906 17.8564 5.55697 20.7189C7.4184 23.4664 9.85467 24.9789 12.4192 24.9789C14.9838 24.9789 17.42 23.4664 19.2815 20.7189C21.2194 17.8539 22.2876 14.0327 22.2876 9.95266V2.97891ZM11.1857 12.6427C11.2719 12.5442 11.3382 12.4294 11.3807 12.305C11.4232 12.1805 11.4411 12.0488 11.4334 11.9174C11.4256 11.7859 11.3924 11.6573 11.3356 11.5389C11.2789 11.4204 11.1996 11.3144 11.1024 11.227C11.0052 11.1396 10.892 11.0725 10.7692 11.0294C10.6464 10.9863 10.5164 10.9682 10.3867 10.976C10.2569 10.9839 10.13 11.0175 10.0131 11.0751C9.89623 11.1326 9.79167 11.2129 9.70541 11.3114C9.37481 11.6864 8.61371 11.9789 7.97843 11.9789C7.34315 11.9789 6.57712 11.6852 6.25146 11.3114C6.16504 11.2129 6.06032 11.1326 5.94328 11.0752C5.82624 11.0177 5.69917 10.9841 5.56933 10.9764C5.4395 10.9687 5.30943 10.987 5.18656 11.0302C5.06369 11.0734 4.95042 11.1407 4.85323 11.2283C4.75603 11.3159 4.67681 11.422 4.62009 11.5406C4.56336 11.6592 4.53025 11.7879 4.52263 11.9195C4.51501 12.0511 4.53304 12.1829 4.57569 12.3074C4.61834 12.4319 4.68477 12.5467 4.7712 12.6452C5.48049 13.4427 6.76709 13.9789 7.97843 13.9789C9.18978 13.9789 10.4764 13.4427 11.1857 12.6452V12.6427Z" fill="#B0F90A"/>
</svg>
