<svg width="40" height="28" viewBox="0 0 40 28" fill="none" xmlns="http://www.w3.org/2000/svg">
<g clip-path="url(#clip0_8_21)">
<path opacity="0.2" d="M26.981 15.2091C26.981 16.4307 26.6145 17.6249 25.9277 18.6406C25.2409 19.6563 24.2648 20.448 23.1228 20.9155C21.9808 21.3829 20.7241 21.5053 19.5117 21.2669C18.2993 21.0286 17.1857 20.4404 16.3116 19.5766C15.4375 18.7128 14.8423 17.6122 14.6011 16.4141C14.36 15.216 14.4837 13.9741 14.9568 12.8455C15.4298 11.7169 16.2309 10.7523 17.2587 10.0736C18.2865 9.39492 19.4949 9.03268 20.731 9.03268C22.3886 9.03268 23.9783 9.68341 25.1504 10.8417C26.3225 12 26.981 13.571 26.981 15.2091ZM10.731 1.62091C9.74211 1.62091 8.77541 1.91071 7.95317 2.45365C7.13092 2.99659 6.49006 3.7683 6.11162 4.67118C5.73318 5.57406 5.63417 6.56757 5.82709 7.52606C6.02002 8.48456 6.49622 9.36499 7.19549 10.056C7.89475 10.7471 8.78566 11.2177 9.75557 11.4083C10.7255 11.599 11.7308 11.5011 12.6444 11.1271C13.5581 10.7532 14.339 10.1198 14.8884 9.30726C15.4378 8.49469 15.731 7.53936 15.731 6.56209C15.731 5.25161 15.2042 3.9948 14.2666 3.06815C13.3289 2.1415 12.0571 1.62091 10.731 1.62091ZM30.731 1.62091C29.7421 1.62091 28.7754 1.91071 27.9532 2.45365C27.1309 2.99659 26.4901 3.7683 26.1116 4.67118C25.7332 5.57406 25.6342 6.56757 25.8271 7.52606C26.02 8.48456 26.4962 9.36499 27.1955 10.056C27.8948 10.7471 28.7857 11.2177 29.7556 11.4083C30.7255 11.599 31.7308 11.5011 32.6444 11.1271C33.5581 10.7532 34.339 10.1198 34.8884 9.30726C35.4378 8.49469 35.731 7.53936 35.731 6.56209C35.731 5.25161 35.2042 3.9948 34.2666 3.06815C33.3289 2.1415 32.0571 1.62091 30.731 1.62091Z" fill="#B0F90A"/>
<path d="M38.9811 16.1974C38.8497 16.2947 38.7003 16.3655 38.5413 16.4058C38.3823 16.4461 38.2168 16.455 38.0543 16.432C37.8918 16.4091 37.7354 16.3547 37.5942 16.2721C37.4529 16.1894 37.3296 16.0801 37.2311 15.9503C36.4776 14.9495 35.497 14.1375 34.368 13.5797C33.239 13.0218 31.9933 12.7337 30.7311 12.7386C30.3995 12.7386 30.0816 12.6084 29.8472 12.3768C29.6128 12.1451 29.4811 11.8309 29.4811 11.5033C29.4811 11.1757 29.6128 10.8615 29.8472 10.6298C30.0816 10.3981 30.3995 10.268 30.7311 10.268C31.4324 10.2679 32.1197 10.0735 32.7149 9.70676C33.31 9.34003 33.7892 8.81572 34.0979 8.19337C34.4066 7.57102 34.5325 6.87558 34.4614 6.18605C34.3902 5.49652 34.1248 4.84053 33.6953 4.29259C33.2657 3.74466 32.6893 3.32674 32.0315 3.08632C31.3737 2.84589 30.6609 2.79259 29.9739 2.93247C29.287 3.07235 28.6535 3.39981 28.1455 3.87764C27.6374 4.35547 27.2752 4.96453 27.0998 5.63563C27.0588 5.79278 26.9868 5.94041 26.888 6.07008C26.7893 6.19974 26.6656 6.30892 26.5242 6.39137C26.3827 6.47381 26.2262 6.52791 26.0636 6.55059C25.9009 6.57326 25.7354 6.56405 25.5764 6.5235C25.4174 6.48294 25.268 6.41183 25.1368 6.31422C25.0055 6.21662 24.8951 6.09442 24.8116 5.95462C24.7282 5.81482 24.6735 5.66015 24.6505 5.49944C24.6276 5.33873 24.6369 5.17513 24.6779 5.01798C24.9213 4.08736 25.3811 3.22572 26.0207 2.50161C26.6604 1.77751 27.4622 1.21092 28.3624 0.846936C29.2626 0.482953 30.2363 0.33162 31.2061 0.404979C32.1759 0.478337 33.115 0.774363 33.9487 1.2695C34.7823 1.76464 35.4876 2.44522 36.0082 3.2571C36.5289 4.06898 36.8506 4.98974 36.9478 5.94612C37.045 6.9025 36.915 7.8681 36.5682 8.76609C36.2213 9.66409 35.6672 10.4697 34.9498 11.1188C36.6495 11.8461 38.1271 13.0002 39.2357 14.4664C39.3342 14.5965 39.4058 14.7446 39.4463 14.902C39.4868 15.0595 39.4955 15.2233 39.4718 15.3841C39.4482 15.5449 39.3926 15.6995 39.3084 15.8391C39.2242 15.9786 39.113 16.1004 38.9811 16.1974ZM30.5623 25.7092C30.6496 25.8498 30.7075 26.0062 30.7325 26.1693C30.7576 26.3324 30.7494 26.4988 30.7084 26.6587C30.6673 26.8186 30.5943 26.9688 30.4936 27.1003C30.3929 27.2319 30.2665 27.3421 30.122 27.4246C29.9774 27.5072 29.8176 27.5602 29.652 27.5807C29.4864 27.6012 29.3183 27.5887 29.1576 27.5439C28.9969 27.4992 28.847 27.4231 28.7166 27.3201C28.5861 27.2171 28.4779 27.0894 28.3983 26.9445C27.6107 25.6272 26.4893 24.5355 25.1447 23.7772C23.8 23.0188 22.2785 22.62 20.7303 22.62C19.1821 22.62 17.6606 23.0188 16.3159 23.7772C14.9712 24.5355 13.8498 25.6272 13.0623 26.9445C12.9842 27.0921 12.8766 27.2226 12.7461 27.328C12.6156 27.4335 12.4649 27.5118 12.303 27.5582C12.1411 27.6047 11.9713 27.6182 11.804 27.5981C11.6366 27.5781 11.4751 27.5247 11.3292 27.4413C11.1832 27.358 11.0558 27.2463 10.9547 27.113C10.8535 26.9797 10.7807 26.8276 10.7406 26.6658C10.7005 26.5039 10.6939 26.3358 10.7213 26.1714C10.7486 26.007 10.8094 25.8498 10.8998 25.7092C12.1117 23.6514 13.9595 22.0321 16.1717 21.0892C14.9269 20.1473 14.012 18.8436 13.5558 17.3614C13.0995 15.8792 13.1247 14.2929 13.6278 12.8255C14.131 11.3582 15.0868 10.0835 16.3609 9.18073C17.635 8.27796 19.1633 7.79245 20.7311 7.79245C22.2988 7.79245 23.8272 8.27796 25.1013 9.18073C26.3754 10.0835 27.3312 11.3582 27.8343 12.8255C28.3375 14.2929 28.3627 15.8792 27.9064 17.3614C27.4501 18.8436 26.5352 20.1473 25.2904 21.0892C27.5026 22.0321 29.3504 23.6514 30.5623 25.7092ZM20.7311 20.1503C21.72 20.1503 22.6867 19.8605 23.5089 19.3176C24.3312 18.7747 24.972 18.0029 25.3505 17.1001C25.7289 16.1972 25.8279 15.2037 25.635 14.2452C25.4421 13.2867 24.9659 12.4063 24.2666 11.7152C23.5673 11.0242 22.6764 10.5536 21.7065 10.3629C20.7366 10.1723 19.7313 10.2701 18.8176 10.6441C17.904 11.0181 17.1231 11.6514 16.5737 12.464C16.0243 13.2766 15.7311 14.2319 15.7311 15.2092C15.7311 16.5196 16.2578 17.7764 17.1955 18.7031C18.1332 19.6297 19.405 20.1503 20.7311 20.1503ZM11.9811 11.5033C11.9811 11.1757 11.8494 10.8615 11.6149 10.6298C11.3805 10.3981 11.0626 10.268 10.7311 10.268C10.0297 10.2679 9.34241 10.0735 8.74727 9.70676C8.15212 9.34003 7.67297 8.81572 7.36424 8.19337C7.05551 7.57102 6.92958 6.87558 7.00075 6.18605C7.07192 5.49652 7.33734 4.84053 7.76686 4.29259C8.19638 3.74466 8.77278 3.32674 9.43059 3.08632C10.0884 2.84589 10.8013 2.79259 11.4882 2.93247C12.1751 3.07235 12.8086 3.39981 13.3167 3.87764C13.8247 4.35547 14.187 4.96453 14.3623 5.63563C14.4452 5.95301 14.6523 6.22486 14.938 6.39137C15.2237 6.55787 15.5646 6.6054 15.8858 6.5235C16.2069 6.44159 16.482 6.23696 16.6505 5.95462C16.819 5.67228 16.8671 5.33536 16.7842 5.01798C16.5408 4.08736 16.081 3.22572 15.4414 2.50161C14.8018 1.77751 13.9999 1.21092 13.0997 0.846936C12.1995 0.482953 11.2258 0.33162 10.256 0.404979C9.2862 0.478337 8.34711 0.774363 7.51345 1.2695C6.67979 1.76464 5.97457 2.44522 5.45391 3.2571C4.93325 4.06898 4.61151 4.98974 4.5143 5.94612C4.41709 6.9025 4.54708 7.8681 4.89395 8.76609C5.24081 9.66409 5.79496 10.4697 6.51231 11.1188C4.81432 11.8468 3.33843 13.0008 2.23106 14.4664C2.03195 14.7285 1.94634 15.0581 1.99308 15.3825C2.03981 15.707 2.21507 15.9998 2.48028 16.1966C2.7455 16.3934 3.07895 16.478 3.40729 16.4318C3.73562 16.3856 4.03194 16.2124 4.23106 15.9503C4.98448 14.9495 5.96515 14.1375 7.09412 13.5797C8.2231 13.0218 9.46884 12.7337 10.7311 12.7386C11.0626 12.7386 11.3805 12.6084 11.6149 12.3768C11.8494 12.1451 11.9811 11.8309 11.9811 11.5033Z" fill="#B0F90A"/>
</g>
<defs>
<clipPath id="clip0_8_21">
<rect width="40" height="28" fill="white"/>
</clipPath>
</defs>
</svg>
