<svg width="28" height="28" viewBox="0 0 28 28" fill="none" xmlns="http://www.w3.org/2000/svg">
<path opacity="0.2" d="M19.9182 14.3121C19.9182 15.4988 19.5663 16.6589 18.907 17.6456C18.2477 18.6323 17.3106 19.4013 16.2143 19.8554C15.1179 20.3095 13.9115 20.4284 12.7476 20.1968C11.5837 19.9653 10.5146 19.3939 9.67551 18.5548C8.8364 17.7157 8.26495 16.6466 8.03344 15.4827C7.80193 14.3188 7.92075 13.1124 8.37488 12.016C8.829 10.9197 9.59804 9.9826 10.5847 9.32332C11.5714 8.66403 12.7315 8.31213 13.9182 8.31213C15.5095 8.31213 17.0356 8.94428 18.1608 10.0695C19.286 11.1947 19.9182 12.7208 19.9182 14.3121Z" fill="#B0F90A"/>
<path d="M25.6518 8.70714C27.0395 11.6094 27.3029 14.9228 26.3913 18.0079C25.4796 21.0929 23.4576 23.7309 20.7153 25.4128C17.973 27.0946 14.7049 27.701 11.5418 27.115C8.37871 26.529 5.54478 24.7921 3.587 22.2395C1.62921 19.6869 0.686344 16.4996 0.940377 13.2927C1.19441 10.0858 2.62733 7.08667 4.96258 4.87414C7.29784 2.66162 10.3699 1.39254 13.5858 1.31184C16.8017 1.23114 19.9336 2.34453 22.3768 4.43714L25.2106 1.60214C25.3982 1.4145 25.6527 1.30909 25.9181 1.30909C26.1835 1.30909 26.438 1.4145 26.6256 1.60214C26.8132 1.78978 26.9187 2.04428 26.9187 2.30964C26.9187 2.57501 26.8132 2.8295 26.6256 3.01714L14.6256 15.0171C14.438 15.2048 14.1835 15.3102 13.9181 15.3102C13.6527 15.3102 13.3982 15.2048 13.2106 15.0171C13.023 14.8295 12.9175 14.575 12.9175 14.3096C12.9175 14.0443 13.023 13.7898 13.2106 13.6021L16.6756 10.1371C15.7365 9.51609 14.6154 9.23013 13.4936 9.32558C12.3718 9.42102 11.315 9.89227 10.4944 10.663C9.67372 11.4338 9.13723 12.459 8.97174 13.5726C8.80625 14.6862 9.02144 15.8231 9.58249 16.7992C10.1435 17.7753 11.0176 18.5335 12.0632 18.951C13.1087 19.3686 14.2646 19.421 15.3437 19.0998C16.4228 18.7787 17.3619 18.1028 18.009 17.1815C18.6561 16.2602 18.9733 15.1474 18.9093 14.0234C18.902 13.8921 18.9205 13.7606 18.9639 13.6364C19.0074 13.5123 19.0748 13.3979 19.1625 13.2998C19.2501 13.2017 19.3562 13.1219 19.4747 13.0648C19.5932 13.0077 19.7218 12.9745 19.8531 12.9671C20.1183 12.9522 20.3786 13.0433 20.5767 13.2203C20.6748 13.3079 20.7546 13.414 20.8117 13.5325C20.8688 13.651 20.902 13.7796 20.9093 13.9109C21.0005 15.5019 20.5461 17.0763 19.6212 18.3741C18.6963 19.6718 17.3563 20.6151 15.8227 21.048C14.289 21.481 12.6536 21.3777 11.1866 20.7553C9.71959 20.1328 8.5089 19.0284 7.75461 17.6247C7.00032 16.2209 6.74758 14.6018 7.03817 13.0349C7.32876 11.4681 8.14527 10.0472 9.35276 9.0073C10.5603 7.96737 12.0864 7.37056 13.6791 7.31553C15.2717 7.2605 16.8355 7.75053 18.1118 8.70464L20.9556 5.86089C18.8716 4.13064 16.2218 3.23135 13.5152 3.33574C10.8085 3.44013 8.23587 4.54085 6.29133 6.42648C4.34679 8.31211 3.16748 10.8497 2.9799 13.5518C2.79232 16.254 3.60969 18.9302 5.27504 21.0664C6.94039 23.2026 9.33628 24.6483 12.0025 25.1256C14.6688 25.603 17.4174 25.0785 19.7205 23.6528C22.0236 22.227 23.7187 20.0007 24.4803 17.4013C25.242 14.8019 25.0163 12.0128 23.8468 9.56964C23.7325 9.33029 23.7179 9.0553 23.8062 8.80517C23.8946 8.55504 24.0787 8.35027 24.3181 8.23589C24.5575 8.12152 24.8324 8.10691 25.0826 8.19529C25.3327 8.28367 25.5375 8.46779 25.6518 8.70714Z" fill="#B0F90A"/>
</svg>
